<?xml version="1.0" standalone="no"?><!DOCTYPE svg PUBLIC "-//W3C//DTD SVG 1.1//EN" "http://www.w3.org/Graphics/SVG/1.1/DTD/svg11.dtd"><svg t="1694962659897" class="icon" viewBox="0 0 1024 1024" version="1.1" xmlns="http://www.w3.org/2000/svg" p-id="5352" xmlns:xlink="http://www.w3.org/1999/xlink" width="200" height="200"><path d="M934.4 407.771429L535.771429 80.457143c-12.8-10.971429-32.914286-10.971429-45.714286 0L91.428571 407.771429c-9.142857 7.314286-16.457143 18.285714-16.457142 31.085714v475.428571c0 20.114286 16.457143 36.571429 36.571428 36.571429h274.285714c20.114286 0 36.571429-16.457143 36.571429-36.571429V731.428571h182.857143v182.857143c0 20.114286 16.457143 36.571429 36.571428 36.571429h274.285715c20.114286 0 36.571429-16.457143 36.571428-36.571429V438.857143c-1.828571-12.8-7.314286-23.771429-18.285714-31.085714zM877.714286 877.714286H676.571429v-146.285715c0-40.228571-32.914286-73.142857-73.142858-73.142857h-181.028571c-40.228571 0-73.142857 32.914286-73.142857 73.142857v146.285715h-201.142857V457.142857l365.714285-299.885714 365.714286 299.885714v420.571429H877.714286z" p-id="5353" fill="#ffffff"></path></svg>