<?xml version="1.0" standalone="no"?><!DOCTYPE svg PUBLIC "-//W3C//DTD SVG 1.1//EN" "http://www.w3.org/Graphics/SVG/1.1/DTD/svg11.dtd"><svg t="1694963297083" class="icon" viewBox="0 0 1024 1024" version="1.1" xmlns="http://www.w3.org/2000/svg" p-id="6128" xmlns:xlink="http://www.w3.org/1999/xlink" width="200" height="200"><path d="M693.028571 279.771429L512 460.8l-181.028571-181.028571-53.028572 51.2 182.857143 181.028571-182.857143 181.028571 53.028572 51.2 181.028571-181.028571 181.028571 181.028571 51.2-51.2-181.028571-181.028571 181.028571-181.028571-51.2-51.2z" p-id="6129" fill="#ffffff"></path><path d="M512 54.857143C259.657143 54.857143 54.857143 259.657143 54.857143 512s204.8 457.142857 457.142857 457.142857 457.142857-204.8 457.142857-457.142857S764.342857 54.857143 512 54.857143z m0 841.142857C299.885714 896 128 724.114286 128 512S299.885714 128 512 128s384 171.885714 384 384-171.885714 384-384 384z" p-id="6130" fill="#ffffff"></path></svg>