<?xml version="1.0" standalone="no"?><!DOCTYPE svg PUBLIC "-//W3C//DTD SVG 1.1//EN" "http://www.w3.org/Graphics/SVG/1.1/DTD/svg11.dtd"><svg t="1694963044214" class="icon" viewBox="0 0 1024 1024" version="1.1" xmlns="http://www.w3.org/2000/svg" p-id="5783" xmlns:xlink="http://www.w3.org/1999/xlink" width="200" height="200"><path d="M512 54.857143C259.657143 54.857143 54.857143 259.657143 54.857143 512s204.8 457.142857 457.142857 457.142857 457.142857-204.8 457.142857-457.142857S764.342857 54.857143 512 54.857143z m0 841.142857C299.885714 896 128 724.114286 128 512S299.885714 128 512 128s384 171.885714 384 384-171.885714 384-384 384z" p-id="5784" fill="#ffffff"></path><path d="M482.742857 266.971429c-10.971429-10.971429-25.6-12.8-40.228571-7.314286-12.8 5.485714-21.942857 18.285714-21.942857 32.914286v438.857142c0 14.628571 9.142857 27.428571 21.942857 32.914286 3.657143 1.828571 9.142857 3.657143 14.628571 3.657143 9.142857 0 18.285714-3.657143 25.6-10.971429l219.428572-219.428571c14.628571-14.628571 14.628571-36.571429 0-51.2l-219.428572-219.428571z m10.971429 376.685714V382.171429l131.657143 131.657142-131.657143 129.828572z" p-id="5785" fill="#ffffff"></path></svg>