<?xml version="1.0" standalone="no"?><!DOCTYPE svg PUBLIC "-//W3C//DTD SVG 1.1//EN" "http://www.w3.org/Graphics/SVG/1.1/DTD/svg11.dtd"><svg t="1694963028787" class="icon" viewBox="0 0 1024 1024" version="1.1" xmlns="http://www.w3.org/2000/svg" p-id="5534" xmlns:xlink="http://www.w3.org/1999/xlink" width="200" height="200"><path d="M1018.514286 491.885714C853.942857 256 678.4 138.971429 495.542857 148.114286 204.8 159.085714 14.628571 480.914286 5.485714 495.542857c-7.314286 10.971429-7.314286 25.6 0 36.571429 7.314286 12.8 199.314286 334.628571 490.057143 347.428571h16.457143c175.542857 0 345.6-115.2 506.514286-345.6 7.314286-12.8 7.314286-31.085714 0-42.057143zM497.371429 804.571429C283.428571 795.428571 122.514286 577.828571 80.457143 512c43.885714-65.828571 204.8-283.428571 416.914286-292.571429 149.942857-5.485714 299.885714 91.428571 444.342857 292.571429-144.457143 199.314286-294.4 298.057143-444.342857 292.571429z" p-id="5535" fill="#ffffff"></path><path d="M512 347.428571c-91.428571 0-164.571429 73.142857-164.571429 164.571429s73.142857 164.571429 164.571429 164.571429 164.571429-73.142857 164.571429-164.571429-73.142857-164.571429-164.571429-164.571429z m0 256c-51.2 0-91.428571-40.228571-91.428571-91.428571s40.228571-91.428571 91.428571-91.428571 91.428571 40.228571 91.428571 91.428571-40.228571 91.428571-91.428571 91.428571z" p-id="5536" fill="#ffffff"></path></svg>