<?xml version="1.0" standalone="no"?><!DOCTYPE svg PUBLIC "-//W3C//DTD SVG 1.1//EN" "http://www.w3.org/Graphics/SVG/1.1/DTD/svg11.dtd"><svg t="1694962588737" class="icon" viewBox="0 0 1042 1024" version="1.1" xmlns="http://www.w3.org/2000/svg" p-id="4988" xmlns:xlink="http://www.w3.org/1999/xlink" width="203.515625" height="200"><path d="M919.771429 73.142857h-804.571429c-20.114286 0-36.571429 16.457143-36.571429 36.571429v804.571428c0 20.114286 16.457143 36.571429 36.571429 36.571429h804.571429c20.114286 0 36.571429-16.457143 36.571428-36.571429V109.714286c0-20.114286-16.457143-36.571429-36.571428-36.571429z m-36.571429 804.571429h-731.428571V548.571429h731.428571v329.142857z m0-402.285715h-731.428571V146.285714h731.428571v329.142857z" p-id="4989" fill="#ffffff"></path><path d="M755.2 676.571429h-475.428571v73.142857h475.428571v-73.142857zM462.628571 274.285714h-182.857142v73.142857h182.857142v-73.142857zM755.2 274.285714h-182.857143v73.142857h182.857143v-73.142857z" p-id="4990" fill="#ffffff"></path></svg>